<svg xmlns="http://www.w3.org/2000/svg" width="13" height="16"><path fill-rule="evenodd" fill="#fff" d="M4.42 7.501c1.89 0 4.105-.619 4.105 1.625C8.525 11.37 6.994 14 5.105 14 3.215 14 1 11.37 1 9.126S2.532 7.5 4.42 7.5zM1.685 3.438c.378 0 .684.364.684.813v4.875c0 .449-.306.812-.684.812-.377 0-.684-.363-.684-.812V4.25c0-.449.307-.813.684-.813zm2.053-1.624c.377 0 .684.363.684.812v6.5c0 .449-.307.812-.684.812-.378 0-.685-.363-.685-.812v-6.5c0-.449.307-.812.685-.812zM5.789 1c.378 0 .684.364.684.813v7.312c0 .449-.306.812-.684.812-.378 0-.684-.363-.684-.812V1.814c0-.45.306-.813.684-.813zM7.84 2.626c.378 0 .684.364.684.812v5.688c0 .449-.306.812-.684.812-.378 0-.684-.363-.684-.812V3.438c0-.448.306-.812.684-.812zM5 9.001l3.231-.366C8.632 8.159 10.6 6.525 11 7c.4.476-.6 2.524-1 3l-3 4c-.4.476-1.6-1.524-2-2-.4-.476-.4-2.524 0-3z"/></svg>